<svg xmlns="http://www.w3.org/2000/svg" width="178.734" height="55.461" viewBox="0 0 178.734 55.461"><path d="M52.793-48.619a7.945,7.945,0,0,1,2.571.394A7.949,7.949,0,0,1,57.406-47.2a8.062,8.062,0,0,1,1.542,1.421A11.955,11.955,0,0,1,60.055-44.2a13.347,13.347,0,0,1,.761,1.493c.2.465.348.862.448,1.181l.063.2-.622.311-.122-.184c-.386-.58-.8-1.163-1.223-1.732a7.917,7.917,0,0,0-1.505-1.519,7.2,7.2,0,0,0-2.067-1.089,8.907,8.907,0,0,0-2.877-.411,10.107,10.107,0,0,0-5.377,1.457A15.046,15.046,0,0,0,43.3-40.5a27.61,27.61,0,0,0-3.222,5.894A60.062,60.062,0,0,0,37.7-27.46c-.669,2.51-1.229,5.109-1.665,7.726s-.811,5.195-1.112,7.65-.547,4.779-.732,6.905-.357,3.98-.513,5.5l0,.025-.008.024a1.918,1.918,0,0,1-.735.962,1.751,1.751,0,0,1-1,.415c-.288,0-.652-.17-.746-.979C31.032-.3,30.855-1.6,30.66-3.073s-.43-3.069-.7-4.739-.587-3.421-.936-5.207-.766-3.55-1.241-5.254a44.578,44.578,0,0,0-1.646-4.851,23.1,23.1,0,0,0-1.817-3.584c-.357,1.247-.769,2.625-1.229,4.106-.526,1.693-1.113,3.485-1.746,5.325s-1.334,3.736-2.084,5.636S17.715-7.879,16.9-6.106s-1.691,3.463-2.589,5.016A30.616,30.616,0,0,1,11.516,3,14.5,14.5,0,0,1,8.564,5.787,5.5,5.5,0,0,1,5.449,6.842a5.254,5.254,0,0,1-2.506-.557A6.539,6.539,0,0,1,1.253,5.02,6.458,6.458,0,0,1,.233,3.631C.008,3.2-.145,2.906-.224,2.749l-.093-.187.584-.438.153.17c.17.189.386.405.643.643a4.449,4.449,0,0,0,.957.65,6.557,6.557,0,0,0,1.439.521,8.6,8.6,0,0,0,2.049.212,5.274,5.274,0,0,0,2.994-1A13.658,13.658,0,0,0,11.392.561a28.159,28.159,0,0,0,2.686-4.094c.852-1.558,1.666-3.237,2.421-4.989s1.479-3.583,2.148-5.435S19.941-17.641,20.5-19.4s1.07-3.439,1.506-5c.422-1.51.8-2.853,1.122-3.993a8.329,8.329,0,0,0-2.366-2.035,5.949,5.949,0,0,0-2.954-.759,6.606,6.606,0,0,0-2.513.45,5.551,5.551,0,0,0-1.837,1.191,5.086,5.086,0,0,0-1.131,1.718,5.409,5.409,0,0,0-.392,2.017,5.631,5.631,0,0,0,.335,2.006,6.748,6.748,0,0,0,.819,1.554,6.2,6.2,0,0,0,1.013,1.113,7.724,7.724,0,0,0,.964.709l.245.147-.539.674L14.6-19.7a8.022,8.022,0,0,1-1-.667,9.127,9.127,0,0,1-1.417-1.34,8.816,8.816,0,0,1-1.267-1.945,5.69,5.69,0,0,1-.553-2.512,7.318,7.318,0,0,1,.655-3.2,6.684,6.684,0,0,1,1.7-2.236,7.2,7.2,0,0,1,2.367-1.32,8.437,8.437,0,0,1,2.672-.438,8.327,8.327,0,0,1,3.488.726,9.5,9.5,0,0,1,2.572,1.749l.057-.2a3.191,3.191,0,0,1,.184-.51,1.873,1.873,0,0,1,.421-.741,1.654,1.654,0,0,1,.5-.361,1.464,1.464,0,0,1,.425-.122c.147-.015.181-.016.2-.016h.3l-.052.293c-.059.337-.159.777-.3,1.308q-.193.744-.438,1.7a19.665,19.665,0,0,1,2.3,3.745A39.269,39.269,0,0,1,29.241-21.2c.527,1.6.988,3.27,1.369,4.96s.711,3.336.984,4.9.514,3.062.719,4.445q.136.917.264,1.733c.123-1.173.266-2.456.427-3.835.253-2.161.569-4.485.939-6.908s.829-4.938,1.365-7.47,1.184-5.04,1.925-7.449a56.745,56.745,0,0,1,2.59-6.857,28.317,28.317,0,0,1,3.37-5.66,15.641,15.641,0,0,1,4.273-3.855A10.236,10.236,0,0,1,52.793-48.619Zm7.668,6.356q-.05-.122-.105-.251a12.843,12.843,0,0,0-.733-1.437,11.453,11.453,0,0,0-1.061-1.5,7.562,7.562,0,0,0-1.446-1.333,7.45,7.45,0,0,0-1.913-.963,7.448,7.448,0,0,0-2.409-.367,9.743,9.743,0,0,0-5.072,1.356,15.145,15.145,0,0,0-4.135,3.733,27.818,27.818,0,0,0-3.31,5.56,56.245,56.245,0,0,0-2.567,6.8c-.737,2.394-1.38,4.885-1.913,7.4s-.991,5.026-1.36,7.442-.684,4.736-.936,6.891-.459,4.077-.615,5.708l-.5.019c-.175-1.013-.368-2.228-.572-3.61s-.445-2.869-.717-4.432-.6-3.2-.979-4.88-.833-3.327-1.356-4.913a38.763,38.763,0,0,0-1.8-4.526,19.055,19.055,0,0,0-2.313-3.745l-.078-.1.031-.121q.264-1.026.469-1.817c.091-.351.165-.66.221-.924-.034.011-.072.026-.115.044a1.167,1.167,0,0,0-.347.255,1.439,1.439,0,0,0-.306.561l-.006.017-.008.016a2.677,2.677,0,0,0-.159.44c-.058.2-.118.407-.177.6l-.122.406-.3-.3a9.106,9.106,0,0,0-2.723-1.94,7.831,7.831,0,0,0-3.28-.681,7.937,7.937,0,0,0-2.514.412,6.7,6.7,0,0,0-2.2,1.229,6.188,6.188,0,0,0-1.576,2.071,6.826,6.826,0,0,0-.6,2.982,5.2,5.2,0,0,0,.5,2.293,8.319,8.319,0,0,0,1.194,1.835q.238.273.474.51-.172-.206-.337-.434a7.247,7.247,0,0,1-.881-1.669,6.127,6.127,0,0,1-.368-2.184,5.906,5.906,0,0,1,.428-2.2A5.584,5.584,0,0,1,13.109-29.9a6.047,6.047,0,0,1,2-1.3,7.1,7.1,0,0,1,2.7-.487,6.443,6.443,0,0,1,3.2.823A8.879,8.879,0,0,1,23.6-28.6l.079.1-.035.123c-.33,1.166-.72,2.551-1.157,4.115s-.947,3.256-1.512,5.019-1.191,3.6-1.863,5.458-1.4,3.7-2.159,5.463-1.583,3.459-2.442,5.031A28.658,28.658,0,0,1,11.782.874a14.155,14.155,0,0,1-3,2.863A5.764,5.764,0,0,1,5.508,4.82a9.088,9.088,0,0,1-2.17-.227A7.051,7.051,0,0,1,1.788,4.03,4.942,4.942,0,0,1,.724,3.3q-.1-.093-.193-.182L.676,3.4a5.963,5.963,0,0,0,.942,1.278A6.042,6.042,0,0,0,3.18,5.844a4.765,4.765,0,0,0,2.269.5,5.016,5.016,0,0,0,2.833-.967A14,14,0,0,0,11.13,2.683a30.115,30.115,0,0,0,2.745-4.024c.89-1.539,1.754-3.213,2.568-4.975s1.606-3.618,2.353-5.51,1.446-3.781,2.076-5.614,1.217-3.622,1.741-5.31.987-3.244,1.375-4.623l.147-.52.3.449A22.955,22.955,0,0,1,26.6-23.312a45.083,45.083,0,0,1,1.665,4.905c.478,1.717.9,3.5,1.25,5.292s.666,3.548.939,5.223.509,3.274.7,4.754S31.528-.372,31.683.7V.7c.019.162.081.54.25.54a1.283,1.283,0,0,0,.7-.318,1.451,1.451,0,0,0,.547-.685c.155-1.51.326-3.347.51-5.463.185-2.132.432-4.461.733-6.923s.677-5.044,1.115-7.672,1-5.247,1.675-7.772a60.558,60.558,0,0,1,2.4-7.208,28.108,28.108,0,0,1,3.282-6,15.544,15.544,0,0,1,4.378-4.123,10.6,10.6,0,0,1,5.639-1.531,9.4,9.4,0,0,1,3.041.438,7.7,7.7,0,0,1,2.21,1.167,8.416,8.416,0,0,1,1.6,1.616C60-42.911,60.233-42.588,60.461-42.263Zm75.857-.057A11.585,11.585,0,0,1,142.8-40.8a5.233,5.233,0,0,1,2.292,4.616,5.728,5.728,0,0,1-.643,2.634,13.018,13.018,0,0,1-1.4,2.2,14.337,14.337,0,0,1-1.477,1.61c-.454.415-.732.674-.827.769l-.044.044q0,.18,0,.365c0,1.637-.04,3.355-.117,5.109s-.172,3.5-.279,5.19-.225,3.341-.352,4.9-.245,2.974-.352,4.22-.2,2.3-.279,3.122-.116,1.348-.116,1.573V-4.1a2.363,2.363,0,0,0,.026.357,1.194,1.194,0,0,0,.047.2,2.253,2.253,0,0,0,.348-.729c.213-.62.488-1.466.818-2.513.216-.668.465-1.354.739-2.039a17.846,17.846,0,0,1,.877-1.887,7.158,7.158,0,0,1,.973-1.412,1.581,1.581,0,0,1,1.136-.608,1.162,1.162,0,0,1,.76.262,2.09,2.09,0,0,1,.483.582,2.847,2.847,0,0,1,.289.723c.06.239.11.471.15.69l0,.024.088,1.055c.039.468.079,1.012.118,1.616s.083,1.243.132,1.9.1,1.3.161,1.9a3.93,3.93,0,0,0,.73,2.232,1.866,1.866,0,0,0,1.482.648,2.562,2.562,0,0,0,.584-.051,2.075,2.075,0,0,1,.5-.066.328.328,0,0,1,.271.132.548.548,0,0,1,.027.483l-.006.021-.01.019c-.047.093-.15.218-.588.495a3.279,3.279,0,0,1-1.687.317,3.818,3.818,0,0,1-1.677-.333,2.519,2.519,0,0,1-1.1-1.07,5.885,5.885,0,0,1-.584-1.806,19.473,19.473,0,0,1-.253-2.594c-.039-.564-.073-1.161-.1-1.774s-.077-1.165-.145-1.663a5.9,5.9,0,0,0-.266-1.193c-.053-.145-.141-.319-.263-.319,0,0-.131.031-.366.469a12,12,0,0,0-.617,1.377c-.2.531-.394,1.069-.567,1.6S141.4-6.1,141.3-5.81c-.077.23-.194.621-.348,1.161s-.347,1.12-.563,1.69a10,10,0,0,1-.722,1.533c-.3.509-.639.767-1.006.767a.856.856,0,0,1-.779-.53,3.675,3.675,0,0,1-.332-1.038,9.444,9.444,0,0,1-.135-1.2c-.02-.4-.03-.747-.03-1.023,0-.51.03-1.347.088-2.488s.127-2.6.2-4.349.147-3.817.2-6.147.088-4.98.088-7.875c0-1.418,0-2.8-.015-4.114s-.024-2.492-.044-3.513-.034-1.859-.044-2.491-.015-.984-.015-1.044a1.312,1.312,0,0,1,.092-.506.979.979,0,0,1,.406-.438l.021-.012a4.367,4.367,0,0,0,.4-.235,1.182,1.182,0,0,1,.649-.2.919.919,0,0,1,.667.241,1.269,1.269,0,0,1,.352.664,8.189,8.189,0,0,1,.169,1.4c.039.636.064,1.528.074,2.65.007.777.011,1.722.013,2.815l.038-.041a10.648,10.648,0,0,0,1.03-1.316,13.173,13.173,0,0,0,1.006-1.782,4.478,4.478,0,0,0,.445-1.915,3.562,3.562,0,0,0-1.84-3.315,11.229,11.229,0,0,0-5.586-1.123,27.261,27.261,0,0,0-7.141.9,28.033,28.033,0,0,0-6.054,2.4,24.943,24.943,0,0,0-4.873,3.437,25.4,25.4,0,0,0-3.6,4,18.252,18.252,0,0,0-2.226,4.074,10.488,10.488,0,0,0-.76,3.662,6.4,6.4,0,0,0,.925,3.6,7.417,7.417,0,0,0,2.467,2.3,13.381,13.381,0,0,0,3.523,1.394c1.326.329,2.706.624,4.1.876s2.788.514,4.12.777a17.776,17.776,0,0,1,3.64,1.1A7.209,7.209,0,0,1,132.553-9.2a4.671,4.671,0,0,1,1.027,3.136,7.724,7.724,0,0,1-.562,3.058,7.728,7.728,0,0,1-1.439,2.24A8.47,8.47,0,0,1,129.632.788a12.08,12.08,0,0,1-2.109.972,12.435,12.435,0,0,1-1.929.508,8.933,8.933,0,0,1-1.4.15,3.177,3.177,0,0,1-1.065-.176,3.048,3.048,0,0,1-.83-.432,2.239,2.239,0,0,1-.543-.578,1.223,1.223,0,0,1-.214-.646,1.486,1.486,0,0,1,.154-.6,3.436,3.436,0,0,1,.348-.6,3.2,3.2,0,0,1,.414-.477.73.73,0,0,1,.477-.242.4.4,0,0,1,.416.284,1.69,1.69,0,0,1,.052.275c.009.08.023.167.041.257,0,.013.007.037.055.067a3.178,3.178,0,0,0,.714.268,6.6,6.6,0,0,0,1.446.109,7.248,7.248,0,0,0,2.45-.41,6.908,6.908,0,0,0,2.008-1.1,5.159,5.159,0,0,0,1.342-1.607,4.145,4.145,0,0,0,.484-1.963,2.939,2.939,0,0,0-.875-2.251,6.926,6.926,0,0,0-2.433-1.426,20.957,20.957,0,0,0-3.532-.911c-1.334-.234-2.712-.5-4.094-.778a36.886,36.886,0,0,1-4.115-1.091,13.109,13.109,0,0,1-3.643-1.837,8.816,8.816,0,0,1-2.593-3.014,9.749,9.749,0,0,1-.982-4.6,14.206,14.206,0,0,1,1.252-5.859,20.286,20.286,0,0,1,3.352-5.147,27.227,27.227,0,0,1,4.82-4.258,35.363,35.363,0,0,1,5.665-3.216,33.971,33.971,0,0,1,5.947-2.051A24.1,24.1,0,0,1,136.318-42.32ZM141.9-30.784q.367-.4.753-.881a12.518,12.518,0,0,0,1.35-2.111,5.233,5.233,0,0,0,.588-2.406,4.7,4.7,0,0,0-2.073-4.2,11.117,11.117,0,0,0-6.2-1.436,23.6,23.6,0,0,0-5.493.711,33.469,33.469,0,0,0-5.859,2.021,34.865,34.865,0,0,0-5.585,3.171,26.727,26.727,0,0,0-4.731,4.179,19.787,19.787,0,0,0-3.269,5.02,13.709,13.709,0,0,0-1.209,5.654,9.263,9.263,0,0,0,.923,4.365,8.32,8.32,0,0,0,2.446,2.845,12.609,12.609,0,0,0,3.505,1.766,36.383,36.383,0,0,0,4.059,1.077c1.378.281,2.75.542,4.08.775A21.458,21.458,0,0,1,128.8-9.3a7.418,7.418,0,0,1,2.606,1.534,3.457,3.457,0,0,1,1.03,2.613,4.641,4.641,0,0,1-.542,2.2A5.656,5.656,0,0,1,130.425-1.2a7.406,7.406,0,0,1-2.152,1.183,7.746,7.746,0,0,1-2.618.439A6.9,6.9,0,0,1,124.083.3a3.66,3.66,0,0,1-.834-.316L123.24-.02a.6.6,0,0,1-.292-.4c-.021-.1-.037-.205-.047-.3q0-.045-.012-.085a.921.921,0,0,0-.1.08,2.7,2.7,0,0,0-.348.4,2.937,2.937,0,0,0-.3.513,1.008,1.008,0,0,0-.11.4.744.744,0,0,0,.137.379,1.744,1.744,0,0,0,.424.447,2.554,2.554,0,0,0,.694.359,2.679,2.679,0,0,0,.9.147,8.471,8.471,0,0,0,1.321-.143,11.938,11.938,0,0,0,1.85-.488,11.578,11.578,0,0,0,2.021-.932,7.972,7.972,0,0,0,1.832-1.463,7.231,7.231,0,0,0,1.345-2.1,7.232,7.232,0,0,0,.522-2.86,4.189,4.189,0,0,0-.907-2.811,6.715,6.715,0,0,0-2.459-1.75,17.276,17.276,0,0,0-3.537-1.068c-1.33-.262-2.714-.523-4.112-.776s-2.8-.551-4.132-.882a13.879,13.879,0,0,1-3.655-1.448,7.913,7.913,0,0,1-2.631-2.45,6.882,6.882,0,0,1-1.009-3.874,10.979,10.979,0,0,1,.793-3.839,18.749,18.749,0,0,1,2.286-4.187,25.9,25.9,0,0,1,3.668-4.083,25.442,25.442,0,0,1,4.971-3.506,28.533,28.533,0,0,1,6.162-2.439,27.76,27.76,0,0,1,7.273-.917,11.694,11.694,0,0,1,5.84,1.192,4.076,4.076,0,0,1,2.086,3.746,4.974,4.974,0,0,1-.493,2.128,13.674,13.674,0,0,1-1.045,1.85Q142.04-30.973,141.9-30.784Zm-1.7,1.209c0-1.317-.006-2.44-.014-3.337-.01-1.113-.034-2-.073-2.624a7.915,7.915,0,0,0-.154-1.3.792.792,0,0,0-.2-.413l-.017-.015a.435.435,0,0,0-.321-.1.682.682,0,0,0-.377.121,4.937,4.937,0,0,1-.437.257.5.5,0,0,0-.2.2.819.819,0,0,0-.054.314c0,.057,0,.405.015,1.036s.024,1.469.044,2.489.034,2.206.044,3.519.015,2.7.015,4.118c0,2.9-.03,5.552-.088,7.887s-.127,4.406-.205,6.157-.147,3.212-.205,4.352-.088,1.962-.088,2.463c0,.268.01.6.029,1a8.946,8.946,0,0,0,.128,1.14,3.182,3.182,0,0,0,.283.9c.12.231.242.261.335.261.221,0,.435-.284.576-.522a9.506,9.506,0,0,0,.685-1.456c.211-.557.4-1.112.55-1.65s.276-.945.355-1.182c.1-.292.235-.71.41-1.244s.37-1.084.575-1.623a12.49,12.49,0,0,1,.643-1.435c.169-.314.436-.732.806-.732.227,0,.538.112.733.648a6.384,6.384,0,0,1,.291,1.3c.069.513.119,1.087.148,1.706s.064,1.205.1,1.767v.007a19,19,0,0,0,.245,2.529,5.4,5.4,0,0,0,.529,1.651,2,2,0,0,0,.887.864,3.331,3.331,0,0,0,1.458.282,2.792,2.792,0,0,0,1.419-.24c.136-.086.228-.151.29-.2l-.1.021a2.989,2.989,0,0,1-.705.066,2.37,2.37,0,0,1-1.858-.817,4.324,4.324,0,0,1-.852-2.516c-.058-.6-.113-1.244-.161-1.908s-.093-1.3-.132-1.907-.078-1.142-.117-1.607l-.087-1.042c-.037-.2-.085-.422-.141-.646a2.347,2.347,0,0,0-.238-.6,1.594,1.594,0,0,0-.367-.444.666.666,0,0,0-.442-.148,1.121,1.121,0,0,0-.768.446,6.666,6.666,0,0,0-.9,1.313,17.345,17.345,0,0,0-.852,1.834c-.27.675-.515,1.35-.727,2.006-.331,1.05-.607,1.9-.822,2.524-.267.775-.521,1.106-.852,1.106a.436.436,0,0,1-.4-.28,1.529,1.529,0,0,1-.107-.386,2.863,2.863,0,0,1-.032-.434v-.352c0-.244.039-.774.118-1.62.078-.824.171-1.873.278-3.118s.225-2.664.351-4.218.244-3.2.351-4.888.2-3.434.278-5.181.117-3.457.117-5.087q0-.352,0-.686l-.13-.2ZM65.947-36.9c.866,0,1.5.723,1.882,2.148a25.746,25.746,0,0,1,.536,6.129,53.194,53.194,0,0,1-.309,5.4,45.389,45.389,0,0,1-1.075,6.113c-.428,1.772-.838,3.347-1.218,4.682-.372,1.307-.726,2.468-1.052,3.45a22.922,22.922,0,0,0,.64,2.574,12.8,12.8,0,0,0,.876,2.155,4.97,4.97,0,0,0,1.058,1.409,1.74,1.74,0,0,0,1.182.48A1.726,1.726,0,0,0,69.54-2.8a7.526,7.526,0,0,0,1.12-1.134c.05-.063.1-.126.15-.19-.01-.146-.015-.3-.015-.444a7.632,7.632,0,0,1,.68-3.089,10.164,10.164,0,0,1,1.8-2.763,9.477,9.477,0,0,1,2.588-2,6.582,6.582,0,0,1,3.09-.776,6.63,6.63,0,0,1,2,.261,4.755,4.755,0,0,1,1.315.621,2.6,2.6,0,0,1,.744.765,1.431,1.431,0,0,1,.239.683.83.83,0,0,1-.586.805,2.465,2.465,0,0,1-.865.177.844.844,0,0,1-.687-.412,5.131,5.131,0,0,0-.545-.628,3.93,3.93,0,0,0-.84-.619,2.638,2.638,0,0,0-1.3-.275,4.151,4.151,0,0,0-2.157.595A6.5,6.5,0,0,0,74.521-9.7,7.383,7.383,0,0,0,73.374-7.69a6.481,6.481,0,0,0-.359,1.355l.043.019-.069.192a4.7,4.7,0,0,0-.024.47A3.748,3.748,0,0,0,73.7-3.261a2.3,2.3,0,0,0,1.914.9A3.689,3.689,0,0,0,77.3-2.728a3.806,3.806,0,0,0,1.147-.885,9.921,9.921,0,0,1-.156-1.895,9.311,9.311,0,0,1,.2-2.109,4.352,4.352,0,0,1,.5-1.306,1.92,1.92,0,0,1,.662-.686,1.308,1.308,0,0,1,.619-.192A1.046,1.046,0,0,1,81-9.4a1.855,1.855,0,0,1,.377,1.315,7.252,7.252,0,0,1-.378,2.231,9.889,9.889,0,0,1-.969,2.1,2.148,2.148,0,0,0,.927,1.077A3.128,3.128,0,0,0,82.5-2.3a3.1,3.1,0,0,0,1.424-.339,5.3,5.3,0,0,0,1.287-.938,9.419,9.419,0,0,0,1.156-1.384c.1-.148.2-.3.3-.448-.015-.354-.028-.735-.037-1.132-.029-1.2-.044-2.673-.044-4.386,0-.67-.143-1.01-.424-1.01a.667.667,0,0,0-.18.02.844.844,0,0,1-.23.039.454.454,0,0,1-.484-.484c0-.193.171-.332.488-.522a2.6,2.6,0,0,1,1.315-.255,1.671,1.671,0,0,1,1.448.528,2.561,2.561,0,0,1,.355,1.509c0,1.631.015,3.018.044,4.124s.073,2.025.131,2.74a13.964,13.964,0,0,0,.2,1.609,2.506,2.506,0,0,0,.247.741c.1.164.162.176.165.177a2.082,2.082,0,0,0,.34.026,1.63,1.63,0,0,0,.9-.442,7.979,7.979,0,0,0,1.234-1.307,15.474,15.474,0,0,0,1.254-1.917,13.241,13.241,0,0,0,.941-2.094A3.61,3.61,0,0,1,93.015-8.88a4.437,4.437,0,0,1-.511-2.048,4.462,4.462,0,0,1,.171-1.241,3.625,3.625,0,0,1,.488-1.054,2.608,2.608,0,0,1,.73-.728,1.669,1.669,0,0,1,.911-.274,1.434,1.434,0,0,1,1.166.641,3.36,3.36,0,0,1,.461,2.011,8.082,8.082,0,0,1-.166,1.5A12.928,12.928,0,0,1,95.883-8.6h.24a3.03,3.03,0,0,0,1.191-.229,4.162,4.162,0,0,0,1.009-.608,4.274,4.274,0,0,0,.8-.872,8.367,8.367,0,0,0,.612-1.024l.112-.224.786.393-.093.217a11.414,11.414,0,0,1-.554,1.08,7,7,0,0,1-.957,1.292,5.987,5.987,0,0,1-1.36,1.086,3.465,3.465,0,0,1-1.782.474h-.352a1.457,1.457,0,0,1-.222-.018,20.873,20.873,0,0,1-1.08,2.39,15.565,15.565,0,0,1-1.5,2.337A8.129,8.129,0,0,1,90.947-.6a3.575,3.575,0,0,1-2.031.673,3.053,3.053,0,0,1-.734-.081,1.182,1.182,0,0,1-.672-.51,3.259,3.259,0,0,1-.433-1.1,14.906,14.906,0,0,1-.284-1.909l-.008-.087a9.631,9.631,0,0,1-1.112,1.464,6.729,6.729,0,0,1-1.72,1.354,4.124,4.124,0,0,1-1.979.513,3.569,3.569,0,0,1-1.719-.515A3.537,3.537,0,0,1,78.894-2.3,8.72,8.72,0,0,1,77.006-.739a5.007,5.007,0,0,1-2.65.755,2.985,2.985,0,0,1-1.5-.384,3.552,3.552,0,0,1-1.118-1.008,4.576,4.576,0,0,1-.576-1.093c-.153.215-.313.424-.48.623a5.686,5.686,0,0,1-1.226,1.1,2.715,2.715,0,0,1-1.515.466,3.89,3.89,0,0,1-2.97-1.431,10.377,10.377,0,0,1-1.873-3.4A11.6,11.6,0,0,1,62.315-3.8,9.3,9.3,0,0,1,60.9-2.173a6.616,6.616,0,0,1-1.751,1.142,4.946,4.946,0,0,1-2.02.432,4.287,4.287,0,0,1-1.54-.28,3.517,3.517,0,0,1-1.276-.836,4.066,4.066,0,0,1-.762-1.112c-.183.24-.375.468-.575.683A6.729,6.729,0,0,1,51.257-.791a4.124,4.124,0,0,1-1.979.513,3.569,3.569,0,0,1-1.719-.515A3.537,3.537,0,0,1,46.2-2.3,8.719,8.719,0,0,1,44.31-.739a5.007,5.007,0,0,1-2.65.755,2.985,2.985,0,0,1-1.5-.384,3.552,3.552,0,0,1-1.118-1.008,4.774,4.774,0,0,1-.7-1.453A6.126,6.126,0,0,1,38.1-4.57a7.632,7.632,0,0,1,.68-3.089,10.165,10.165,0,0,1,1.8-2.763,9.477,9.477,0,0,1,2.588-2,6.582,6.582,0,0,1,3.09-.776,6.631,6.631,0,0,1,2,.261,4.755,4.755,0,0,1,1.315.621,2.6,2.6,0,0,1,.744.765,1.43,1.43,0,0,1,.239.683.83.83,0,0,1-.586.805,2.465,2.465,0,0,1-.865.177.844.844,0,0,1-.687-.412,5.129,5.129,0,0,0-.545-.628,3.93,3.93,0,0,0-.84-.619,2.638,2.638,0,0,0-1.3-.275,4.151,4.151,0,0,0-2.157.595A6.5,6.5,0,0,0,41.826-9.7,7.384,7.384,0,0,0,40.678-7.69a5.82,5.82,0,0,0-.409,2.036,3.748,3.748,0,0,0,.737,2.393,2.3,2.3,0,0,0,1.914.9,3.689,3.689,0,0,0,1.688-.368,3.805,3.805,0,0,0,1.147-.885A9.92,9.92,0,0,1,45.6-5.508a9.31,9.31,0,0,1,.2-2.109,4.354,4.354,0,0,1,.5-1.306,1.919,1.919,0,0,1,.662-.686,1.307,1.307,0,0,1,.618-.192,1.046,1.046,0,0,1,.723.4,1.855,1.855,0,0,1,.377,1.315,7.252,7.252,0,0,1-.378,2.23,9.889,9.889,0,0,1-.969,2.1,2.148,2.148,0,0,0,.927,1.077A3.128,3.128,0,0,0,49.8-2.3a3.1,3.1,0,0,0,1.424-.339,5.3,5.3,0,0,0,1.287-.938,8.767,8.767,0,0,0,.657-.72c-.01-.127-.014-.258-.014-.39a7.012,7.012,0,0,1,.7-3.022,9.237,9.237,0,0,1,1.867-2.62,9.559,9.559,0,0,1,2.692-1.865,7.59,7.59,0,0,1,3.226-.712h.018c-.043-.487-.069-.991-.077-1.5-.01-.6-.015-1.246-.015-1.908,0-1.4.035-2.9.1-4.449s.177-3.1.323-4.6.329-2.956.544-4.321a27.542,27.542,0,0,1,.8-3.637,10.442,10.442,0,0,1,1.083-2.537A1.86,1.86,0,0,1,65.947-36.9Zm2.52,35.041a2.248,2.248,0,0,1-1.513-.6,5.461,5.461,0,0,1-1.169-1.55,13.3,13.3,0,0,1-.911-2.24,23.486,23.486,0,0,1-.666-2.695L64.2-9.012l.02-.061c.329-.988.688-2.163,1.066-3.49s.786-2.9,1.213-4.663a44.889,44.889,0,0,0,1.064-6.046,52.7,52.7,0,0,0,.306-5.35,25.308,25.308,0,0,0-.519-6c-.317-1.18-.788-1.778-1.4-1.778-.4,0-.763.264-1.107.807a9.958,9.958,0,0,0-1.026,2.414,27.046,27.046,0,0,0-.783,3.57c-.213,1.356-.395,2.8-.54,4.292s-.253,3.03-.321,4.572-.1,3.031-.1,4.427c0,.66,0,1.3.015,1.9s.044,1.18.1,1.736l.029.276h-.57a7.094,7.094,0,0,0-3.015.665,9.06,9.06,0,0,0-2.552,1.768A8.738,8.738,0,0,0,54.308-7.5a6.559,6.559,0,0,0-.644,2.545l.008-.011c.365-.528.705-1.078,1.012-1.634l.131-.238.237.158a5.884,5.884,0,0,1,.333-1.495,5.232,5.232,0,0,1,1.092-1.784,5.606,5.606,0,0,1,1.885-1.3,6.755,6.755,0,0,1,2.723-.5,2.841,2.841,0,0,1,1.06.194l.138.055.017.148c.1.833.2,1.633.321,2.378a19.027,19.027,0,0,0,.463,2.154l.025.09-.04.085c-.216.452-.465.93-.74,1.421a7.225,7.225,0,0,1-1,1.381,5.428,5.428,0,0,1-1.321,1.044,3.491,3.491,0,0,1-1.734.428A2.9,2.9,0,0,1,55.924-3.5a3.992,3.992,0,0,1-.853-2.081,12.22,12.22,0,0,1-.713,1.517c-.147.264-.3.521-.468.765q.019.051.04.1a3.617,3.617,0,0,0,.74,1.138,3.021,3.021,0,0,0,1.1.717,3.79,3.79,0,0,0,1.361.247,4.448,4.448,0,0,0,1.817-.389,6.117,6.117,0,0,0,1.618-1.056A8.793,8.793,0,0,0,61.9-4.082a10.81,10.81,0,0,0,1-1.789l.265-.605.2.629a10.623,10.623,0,0,0,1.97,3.807,3.368,3.368,0,0,0,2.6,1.264,2.223,2.223,0,0,0,1.239-.384A5.187,5.187,0,0,0,70.3-2.167a9.359,9.359,0,0,0,.674-.915q-.041-.166-.072-.336l-.028.037,0-.024a7.865,7.865,0,0,1-1.014.992A2.207,2.207,0,0,1,68.467-1.859ZM96.123-8.1h-.936l.114-.331a12.943,12.943,0,0,0,.474-1.739,7.591,7.591,0,0,0,.157-1.4,2.976,2.976,0,0,0-.36-1.71.95.95,0,0,0-.767-.443,1.161,1.161,0,0,0-.642.195,2.114,2.114,0,0,0-.588.591,3.127,3.127,0,0,0-.42.909,3.963,3.963,0,0,0-.151,1.1,3.942,3.942,0,0,0,.456,1.819,3.117,3.117,0,0,0,1.29,1.331l.183.1-.066.2a13.791,13.791,0,0,1-1.044,2.372,15.976,15.976,0,0,1-1.3,1.979,8.469,8.469,0,0,1-1.315,1.389A2.022,2.022,0,0,1,90-1.186a2.583,2.583,0,0,1-.422-.033.776.776,0,0,1-.509-.409,2.917,2.917,0,0,1-.31-.9A14.41,14.41,0,0,1,88.55-4.2c-.059-.724-.1-1.655-.133-2.768s-.044-2.5-.044-4.137a2.149,2.149,0,0,0-.26-1.216,1.349,1.349,0,0,0-1.043-.321,2.125,2.125,0,0,0-1.058.184l-.055.033a1.338,1.338,0,0,1,.2-.014c.421,0,.924.262.924,1.51,0,1.709.015,3.18.044,4.374q0,.192.01.378.122-.209.239-.42l.131-.238.558.372-.057.179a11.949,11.949,0,0,1-.788,1.9c.02.29.042.564.066.814a14.435,14.435,0,0,0,.273,1.841A2.838,2.838,0,0,0,87.92-.8a.706.706,0,0,0,.383.31,2.557,2.557,0,0,0,.613.066,3.086,3.086,0,0,0,1.749-.586,7.632,7.632,0,0,0,1.673-1.6,15.068,15.068,0,0,0,1.455-2.262A20.243,20.243,0,0,0,94.921-7.41L95-7.629l.224.064a1.151,1.151,0,0,0,.312.049h.352a2.972,2.972,0,0,0,1.529-.4,5.488,5.488,0,0,0,1.247-.994,6.834,6.834,0,0,0,.643-.8,4.723,4.723,0,0,1-.668.67,4.662,4.662,0,0,1-1.13.681A3.526,3.526,0,0,1,96.123-8.1ZM49.1-10.387a1.973,1.973,0,0,0,.688-.145c.232-.088.263-.214.263-.338a.974.974,0,0,0-.171-.431,2.112,2.112,0,0,0-.6-.611,4.269,4.269,0,0,0-1.176-.551A6.143,6.143,0,0,0,46.26-12.7a6.087,6.087,0,0,0-2.857.718,8.979,8.979,0,0,0-2.451,1.9,9.666,9.666,0,0,0-1.714,2.628A7.136,7.136,0,0,0,38.6-4.57a5.627,5.627,0,0,0,.224,1.6,4.276,4.276,0,0,0,.622,1.3,3.055,3.055,0,0,0,.962.867,2.491,2.491,0,0,0,1.253.319,4.514,4.514,0,0,0,2.389-.681,8.271,8.271,0,0,0,2.019-1.749l.258-.308.162.367A3.311,3.311,0,0,0,47.8-1.229a3.085,3.085,0,0,0,1.475.452,3.629,3.629,0,0,0,1.741-.453A6.231,6.231,0,0,0,52.61-2.485a8.879,8.879,0,0,0,.728-.9q-.035-.118-.064-.241l-.033.042,0-.026q-.184.2-.373.388a5.8,5.8,0,0,1-1.409,1.025A3.6,3.6,0,0,1,49.8-1.8a3.621,3.621,0,0,1-1.792-.442,2.712,2.712,0,0,1-1.195-1.446l-.045-.117.067-.106a9.4,9.4,0,0,0,.985-2.1,6.756,6.756,0,0,0,.354-2.076,1.467,1.467,0,0,0-.238-.97c-.217-.227-.331-.245-.361-.245a.835.835,0,0,0-.378.13,1.474,1.474,0,0,0-.481.515A3.937,3.937,0,0,0,46.283-7.5,8.828,8.828,0,0,0,46.1-5.508a9.036,9.036,0,0,0,.17,1.909l.026.119-.077.094a4.284,4.284,0,0,1-1.384,1.1,4.182,4.182,0,0,1-1.915.423A2.807,2.807,0,0,1,40.615-2.95a4.233,4.233,0,0,1-.845-2.7,6.315,6.315,0,0,1,.441-2.212,7.884,7.884,0,0,1,1.225-2.148,7,7,0,0,1,1.883-1.641,4.644,4.644,0,0,1,2.413-.665,3.12,3.12,0,0,1,1.544.34,4.425,4.425,0,0,1,.947.7,5.629,5.629,0,0,1,.6.691C48.918-10.455,49.012-10.387,49.1-10.387Zm32.7,0a1.973,1.973,0,0,0,.688-.145c.232-.088.263-.214.263-.338a.974.974,0,0,0-.171-.431,2.112,2.112,0,0,0-.6-.611,4.269,4.269,0,0,0-1.176-.551,6.144,6.144,0,0,0-1.843-.237,6.087,6.087,0,0,0-2.857.718,8.979,8.979,0,0,0-2.451,1.9,9.664,9.664,0,0,0-1.714,2.628A7.213,7.213,0,0,0,71.3-4.8q.162-.24.308-.483c.279-.462.5-.843.653-1.131l.11-.205.172.077a7.115,7.115,0,0,1,.364-1.321,7.882,7.882,0,0,1,1.225-2.148,7,7,0,0,1,1.883-1.641,4.644,4.644,0,0,1,2.413-.665,3.12,3.12,0,0,1,1.544.34,4.426,4.426,0,0,1,.947.7,5.628,5.628,0,0,1,.6.691C81.613-10.455,81.707-10.387,81.8-10.387Zm-19.976-.768a2.418,2.418,0,0,0-.737-.109,6.264,6.264,0,0,0-2.521.462,5.111,5.111,0,0,0-1.719,1.186A4.735,4.735,0,0,0,55.855-8a5.21,5.21,0,0,0-.322,1.761,3.725,3.725,0,0,0,.779,2.42,2.392,2.392,0,0,0,1.959.933A3,3,0,0,0,59.76-3.25a4.929,4.929,0,0,0,1.2-.948,6.724,6.724,0,0,0,.932-1.285c.253-.451.483-.891.685-1.308a19.58,19.58,0,0,1-.45-2.12C62.016-9.617,61.913-10.371,61.821-11.155ZM82.5-1.8a3.621,3.621,0,0,1-1.792-.442,2.712,2.712,0,0,1-1.195-1.446l-.045-.117.067-.106a9.4,9.4,0,0,0,.985-2.1,6.755,6.755,0,0,0,.354-2.076,1.467,1.467,0,0,0-.238-.97c-.217-.227-.331-.245-.361-.245a.835.835,0,0,0-.378.13,1.474,1.474,0,0,0-.481.515A3.936,3.936,0,0,0,78.978-7.5a8.828,8.828,0,0,0-.184,1.992,9.038,9.038,0,0,0,.17,1.909l.026.119-.077.094a4.284,4.284,0,0,1-1.384,1.1,4.182,4.182,0,0,1-1.915.423A2.807,2.807,0,0,1,73.31-2.95a3.933,3.933,0,0,1-.8-1.957q-.06.135-.128.281c-.2.425-.442.89-.728,1.382-.047.082-.1.164-.146.244l.008.028a4.276,4.276,0,0,0,.622,1.3A3.055,3.055,0,0,0,73.1-.8a2.491,2.491,0,0,0,1.253.319,4.514,4.514,0,0,0,2.389-.681,8.271,8.271,0,0,0,2.019-1.749l.258-.308.162.367A3.31,3.31,0,0,0,80.5-1.229a3.084,3.084,0,0,0,1.475.452,3.629,3.629,0,0,0,1.741-.453,6.231,6.231,0,0,0,1.591-1.254,9.364,9.364,0,0,0,1.312-1.826q.05-.09.1-.18l0-.064-.006.009v-.026A9.823,9.823,0,0,1,85.56-3.22a5.8,5.8,0,0,1-1.409,1.025A3.6,3.6,0,0,1,82.5-1.8ZM71.355-3.723c.223-.395.416-.769.577-1.114l.039-.084c-.2.319-.414.636-.646.945Q71.337-3.849,71.355-3.723ZM53.717-3.958q.106-.173.205-.353.153-.275.29-.557l-.13.19c-.127.184-.259.364-.393.534Q53.7-4.049,53.717-3.958Zm11.7-31.566c.342,0,.626.252.844.75a7.089,7.089,0,0,1,.443,1.794c.108.756.192,1.684.251,2.761s.088,2.3.088,3.646a46.563,46.563,0,0,1-.236,4.757c-.156,1.513-.359,2.968-.6,4.325s-.527,2.646-.839,3.828-.619,2.253-.911,3.189l-.485-.035c-.215-1.349-.373-2.721-.471-4.079s-.147-2.63-.147-3.783c0-.994.015-2.115.044-3.331s.079-2.467.147-3.714.152-2.481.249-3.669.217-2.262.353-3.18a16.88,16.88,0,0,1,.462-2.247C64.739-34.945,64.964-35.523,65.42-35.523ZM64.3-11.691c.19-.651.385-1.353.582-2.1.309-1.17.589-2.445.831-3.789s.443-2.788.6-4.288a46.064,46.064,0,0,0,.233-4.706c0-1.337-.029-2.555-.088-3.619s-.141-1.976-.247-2.718a6.726,6.726,0,0,0-.406-1.663c-.126-.287-.267-.451-.386-.451,0,0-.149.045-.332.656a16.4,16.4,0,0,0-.446,2.177c-.135.908-.253,1.967-.35,3.148s-.181,2.413-.249,3.655-.117,2.486-.146,3.7-.044,2.329-.044,3.319c0,1.141.049,2.4.146,3.747C64.069-13.648,64.171-12.666,64.3-11.691Zm99.965-3.618a1.2,1.2,0,0,1,1.157.91,6.8,6.8,0,0,1,.344,1.921.714.714,0,0,0,.144.026c.12.009.276.014.464.014a10.24,10.24,0,0,0,1.372-.086,9.83,9.83,0,0,1,1.323-.09,2.256,2.256,0,0,1,1.315.353,2.293,2.293,0,0,1,.738.822,2.891,2.891,0,0,1,.3.946,5.989,5.989,0,0,1,.061.765,10.987,10.987,0,0,1-.09,1.142c-.058.506-.123,1.039-.191,1.584l-.19,1.523a8.855,8.855,0,0,0-.086.907,5.776,5.776,0,0,0,.084,1.025,2.241,2.241,0,0,0,.289.778,1.284,1.284,0,0,0,.555.492,2.307,2.307,0,0,0,.99.18,3.722,3.722,0,0,0,2.41-1.165,12.62,12.62,0,0,0,2.468-3.333l.13-.241.558.372-.053.177a10.045,10.045,0,0,1-1.021,2.269,12.335,12.335,0,0,1-1.585,2.108A9.11,9.11,0,0,1,173.83-.328a4,4,0,0,1-2.063.637,2.437,2.437,0,0,1-1.417-.382,2.57,2.57,0,0,1-.826-.94,3.8,3.8,0,0,1-.377-1.191,8.1,8.1,0,0,1-.091-1.164,11.721,11.721,0,0,1,.119-1.542c.078-.575.162-1.158.25-1.733s.171-1.118.249-1.626a8.193,8.193,0,0,0,.114-1.163,1.017,1.017,0,0,0-.1-.493.766.766,0,0,0-.254-.278.785.785,0,0,0-.31-.124,2.206,2.206,0,0,0-.287-.027,4.947,4.947,0,0,0-.793.084,9.267,9.267,0,0,1-1.492.091,5.616,5.616,0,0,1-.614-.031c-.09-.01-.179-.023-.265-.038a5.563,5.563,0,0,1-.557,1.665,4.889,4.889,0,0,1-1.112,1.4,4.519,4.519,0,0,1-1.473.852,4.987,4.987,0,0,1-1.635.277h-.325a8.192,8.192,0,0,1-.879,2.291,8.074,8.074,0,0,1-1.542,1.95,6.845,6.845,0,0,1-1.931,1.261,5.315,5.315,0,0,1-2.09.445,4.464,4.464,0,0,1-3.344-1.351,5.388,5.388,0,0,1-1.3-3.88,7.7,7.7,0,0,1,.637-3.133,8.414,8.414,0,0,1,1.646-2.475,7.607,7.607,0,0,1,2.257-1.62,5.825,5.825,0,0,1,2.449-.58,4.01,4.01,0,0,1,3.146,1.344A5.724,5.724,0,0,1,160.8-7.91a3.372,3.372,0,0,1-.032.475q-.011.074-.017.154h.092a3.534,3.534,0,0,0,1.08-.193,3.606,3.606,0,0,0,1.123-.617,3.682,3.682,0,0,0,.918-1.126,4.2,4.2,0,0,0,.455-1.59,3.108,3.108,0,0,1-.928-1.123,4.029,4.029,0,0,1-.378-1.811,2.01,2.01,0,0,1,.271-1.069A1,1,0,0,1,164.268-15.309Zm2.109,3.371c-.2,0-.37-.005-.5-.015a1.233,1.233,0,0,1-.459-.128l-.131-.066-.007-.146a6.608,6.608,0,0,0-.321-1.931c-.2-.524-.486-.584-.689-.584a.5.5,0,0,0-.461.262,1.522,1.522,0,0,0-.2.806,3.539,3.539,0,0,0,.325,1.587,2.593,2.593,0,0,0,.882,1.017l.122.082-.012.147a4.806,4.806,0,0,1-.528,1.931A4.177,4.177,0,0,1,163.354-7.7a4.1,4.1,0,0,1-1.279.7,4.028,4.028,0,0,1-1.235.217h-.6v-.25a3.379,3.379,0,0,1,.032-.475,2.875,2.875,0,0,0,.027-.4,5.254,5.254,0,0,0-1.051-3.555,3.486,3.486,0,0,0-2.772-1.175,5.331,5.331,0,0,0-2.239.533,7.109,7.109,0,0,0-2.108,1.515,7.916,7.916,0,0,0-1.547,2.329,7.2,7.2,0,0,0-.594,2.931,4.915,4.915,0,0,0,1.16,3.532,3.931,3.931,0,0,0,2.984,1.2,4.818,4.818,0,0,0,1.894-.4,6.348,6.348,0,0,0,1.79-1.17,7.576,7.576,0,0,0,1.446-1.83,7.749,7.749,0,0,0,.865-2.342l.04-.2h.732a4.488,4.488,0,0,0,1.471-.25,4.021,4.021,0,0,0,1.31-.759,4.39,4.39,0,0,0,1-1.262,5.238,5.238,0,0,0,.544-1.762l.038-.276.27.067a3.537,3.537,0,0,0,.465.082,5.116,5.116,0,0,0,.558.028,8.939,8.939,0,0,0,1.408-.084,5.349,5.349,0,0,1,.877-.091,2.635,2.635,0,0,1,.358.032,1.28,1.28,0,0,1,.51.2,1.27,1.27,0,0,1,.42.454,1.5,1.5,0,0,1,.164.738,8.531,8.531,0,0,1-.12,1.239q-.117.762-.249,1.626c-.087.572-.171,1.152-.248,1.724a11.226,11.226,0,0,0-.115,1.475,7.6,7.6,0,0,0,.085,1.092,3.3,3.3,0,0,0,.327,1.035,2.075,2.075,0,0,0,.668.759,1.956,1.956,0,0,0,1.131.292,3.516,3.516,0,0,0,1.8-.565,8.61,8.61,0,0,0,1.822-1.495,11.836,11.836,0,0,0,1.521-2.023q.131-.22.25-.439A10.913,10.913,0,0,1,175.6-2.892a4.19,4.19,0,0,1-2.747,1.3,2.789,2.789,0,0,1-1.207-.23,1.793,1.793,0,0,1-.763-.68,2.738,2.738,0,0,1-.355-.951,6.276,6.276,0,0,1-.092-1.114,9.55,9.55,0,0,1,.09-.968l.19-1.523c.068-.543.132-1.075.19-1.58a10.737,10.737,0,0,0,.086-1.085,5.506,5.506,0,0,0-.056-.7,2.393,2.393,0,0,0-.253-.782,1.8,1.8,0,0,0-.581-.642,1.776,1.776,0,0,0-1.028-.262,9.324,9.324,0,0,0-1.255.086A10.743,10.743,0,0,1,166.377-11.937Zm-1.816-1.877h.25v.25a.6.6,0,0,0,.02.137,1.377,1.377,0,0,1,.052.278c.009.089.022.18.04.269l.162.81-.584-.584a.948.948,0,0,1-.255-.419,1.424,1.424,0,0,1-.053-.373A.351.351,0,0,1,164.561-13.814ZM94.277-12.789a.877.877,0,0,1,.646.249,1.355,1.355,0,0,1,.324.537,2.881,2.881,0,0,1,.129.658c.02.231.03.45.03.652a7.841,7.841,0,0,1-.076,1.1A8.526,8.526,0,0,1,95.1-8.517l-.079.283-.267-.123a2.3,2.3,0,0,1-1.194-1.181,4.025,4.025,0,0,1-.329-1.624,2.15,2.15,0,0,1,.269-1.109A.893.893,0,0,1,94.277-12.789ZM94.7-8.956c.056-.237.1-.473.135-.7a7.347,7.347,0,0,0,.071-1.034c0-.187-.01-.392-.028-.608a2.383,2.383,0,0,0-.105-.543.849.849,0,0,0-.2-.342.377.377,0,0,0-.292-.1c-.044,0-.18,0-.342.273a1.662,1.662,0,0,0-.2.854,3.528,3.528,0,0,0,.287,1.423A1.724,1.724,0,0,0,94.7-8.956Zm60.4-2.632a3.806,3.806,0,0,1,1.8.41,3.568,3.568,0,0,1,1.259,1.1,5.026,5.026,0,0,1,.725,1.587,7.25,7.25,0,0,1,.243,1.9,6.482,6.482,0,0,1-.322,2.133,4.7,4.7,0,0,1-.883,1.562,3.825,3.825,0,0,1-1.285.971,3.548,3.548,0,0,1-1.481.33,3.422,3.422,0,0,1-1.815-.476,3.8,3.8,0,0,1-1.254-1.253,6.187,6.187,0,0,1-.718-1.694,7.47,7.47,0,0,1-.243-1.895,5.851,5.851,0,0,1,.339-2.1,4.286,4.286,0,0,1,.9-1.461,3.483,3.483,0,0,1,1.294-.851A4.131,4.131,0,0,1,155.1-11.588Zm.059,9.492a3.051,3.051,0,0,0,1.273-.285,3.328,3.328,0,0,0,1.117-.846,4.2,4.2,0,0,0,.787-1.4,5.989,5.989,0,0,0,.294-1.968,6.751,6.751,0,0,0-.226-1.766,4.529,4.529,0,0,0-.652-1.43,3.073,3.073,0,0,0-1.085-.949,3.314,3.314,0,0,0-1.567-.352,3.633,3.633,0,0,0-1.261.234,2.987,2.987,0,0,0-1.109.731,3.791,3.791,0,0,0-.8,1.293,5.359,5.359,0,0,0-.306,1.917,6.97,6.97,0,0,0,.226,1.768,5.688,5.688,0,0,0,.659,1.558A3.307,3.307,0,0,0,153.6-2.5,2.931,2.931,0,0,0,155.156-2.1ZM47.4-8.717c.514,0,.514.739.514.982A6.843,6.843,0,0,1,47.7-6.2a7.244,7.244,0,0,1-.667,1.745l-.306.571-.157-.628a7.232,7.232,0,0,1-.183-1.731,4.673,4.673,0,0,1,.266-1.672C46.79-8.258,47.012-8.717,47.4-8.717ZM46.929-5.4a6.525,6.525,0,0,0,.288-.909,6.357,6.357,0,0,0,.2-1.422,1.553,1.553,0,0,0-.046-.452,1.344,1.344,0,0,0-.247.454,4.185,4.185,0,0,0-.232,1.492C46.891-5.943,46.9-5.663,46.929-5.4ZM80.1-8.717c.514,0,.514.739.514.982A6.842,6.842,0,0,1,80.4-6.2a7.243,7.243,0,0,1-.667,1.745l-.306.571-.157-.628a7.233,7.233,0,0,1-.183-1.731,4.673,4.673,0,0,1,.266-1.672C79.485-8.258,79.708-8.717,80.1-8.717ZM79.625-5.4a6.526,6.526,0,0,0,.288-.909,6.355,6.355,0,0,0,.2-1.422,1.553,1.553,0,0,0-.046-.452,1.345,1.345,0,0,0-.247.454,4.185,4.185,0,0,0-.232,1.492C79.586-5.943,79.6-5.663,79.625-5.4Z" transform="translate(0.317 48.619)" fill="#707070"/></svg>